<?xml version="1.0" encoding="UTF-8"?>
<svg
   width="4236"
   height="2243"
   version="1.1"
   xmlns="http://www.w3.org/2000/svg">
  <defs id="defs4" />
  <g transform="translate(-58.648897,-172.37841)" id="g4">
    <text
       fill="#125370"
       font-family="Montserrat, sans-serif"
       font-weight="700"
       font-size="458px"
       transform="translate(1537.71,1325)"
       id="text1"
       style="fill:#ffffff">codeverse</text>
    <text
       fill="#125370"
       font-family="'Glacial Indifference', sans-serif"
       font-weight="400"
       font-size="183px"
       transform="translate(1651.92,1523)"
       id="text2"
       style="fill:#ffffff">crafting digital verse</text>
    <path
       id="path2"
       style="fill:#ffffff"
       d="M 897.00046 644.9995 C 593.24346 644.9995 347.00046 889.0045 347.00046 1189.9995 C 347.00046 1490.9995 593.24346 1734.9995 897.00046 1734.9995 C 976.71348 1734.9995 1052.3695 1718.0341 1120.7348 1687.7827 C 1094.0683 1678.9368 1070.8733 1667.8679 1051.5356 1654.3315 C 1009.0156 1624.5675 987.75632 1578.1509 987.75632 1515.0796 L 987.75632 1338.6206 C 987.75632 1311.6913 980.66989 1291.4954 966.49655 1278.0308 C 953.03189 1263.8574 930.70914 1256.769 899.5278 1256.769 L 899.5278 1129.2104 C 930.70914 1128.5018 953.03189 1121.4153 966.49655 1107.9507 C 980.66989 1094.486 987.75632 1073.9344 987.75632 1046.2964 L 987.75632 870.90185 C 987.75632 807.83051 1009.0156 761.41194 1051.5356 731.64794 C 1072.673 716.85178 1098.2082 704.86928 1128.102 695.67724 C 1057.8077 663.3236 979.61206 644.9995 897.00046 644.9995 z M 1291.3872 671.5913 C 1270.4863 673.49138 1251.3112 676.4972 1232.9653 680.03271 L 1255.6313 795.42724 C 1225.8673 801.80524 1203.8984 813.14548 1189.7251 829.44482 C 1175.5517 845.74415 1168.4653 868.0669 1168.4653 896.41357 L 1168.4653 1054.8003 C 1168.4653 1094.4856 1156.0636 1126.7294 1131.2602 1151.5327 C 1107.1656 1175.6274 1074.568 1189.4464 1033.4653 1192.9897 C 1074.568 1196.5331 1107.1656 1210.7059 1131.2602 1235.5093 C 1156.0636 1259.6039 1168.4653 1291.4939 1168.4653 1331.1792 L 1168.4653 1489.5679 C 1168.4653 1517.9145 1175.5517 1540.2373 1189.7251 1556.5366 C 1203.8984 1572.8359 1225.8673 1584.1742 1255.6313 1590.5522 L 1233.854 1701.4292 C 1251.9484 1704.876 1270.8276 1707.8199 1291.3872 1709.689 L 1314.8833 1590.0718 C 1302.4144 1587.3999 1291.3886 1583.8107 1281.643 1579.4058 C 1383.6331 1480.4737 1447.0005 1342.6008 1447.0005 1189.9995 C 1447.0005 1037.8467 1384.0156 900.32146 1282.5493 801.45068 C 1292.0714 797.23696 1302.8063 793.79641 1314.8833 791.20849 L 1291.3872 671.5913 z " />
  </g>
</svg>
